<svg width="235.7265690970067" height="239.59249572753907" viewBox="0 0 290.625 295.39126343522656" class="css-1j8o68f">
  <defs id="SvgjsDefs3181">
    <linearGradient id="SvgjsLinearGradient3192">
      <stop id="SvgjsStop3193" stop-color="#00ddff" offset="0"></stop>
      <stop id="SvgjsStop3194" stop-color="#ff00d4" offset="1"></stop>
    </linearGradient>
  </defs>
  <g id="SvgjsG3182" featurekey="rootContainer" transform="matrix(1.5622622585100123,0,0,1.5622622585100123,0.0005460444619597621,0.0002694837436752305)" fill="#be3144">
    <path xmlns="http://www.w3.org/2000/svg" d="M17.914 148.907zM22.657 154.94a90.586 90.586 0 0 0 5.861 6.251c6.914 6.805 15.159 12.525 24.004 16.851 3.259 1.526 6.265 3.107 9.787 4.468.88.338 1.779.7 2.724 1.026.953.302 1.941.604 2.974.903 1.027.321 2.122.549 3.267.786 1.146.23 2.336.493 3.614.624a91.24 91.24 0 0 1-18.434-5.99 93.833 93.833 0 0 1-16.873-9.842c-10.548-7.727-19.57-17.648-26.16-28.989-.272-.339-.685-.985-1.18-1.808l-.796-1.348-.803-1.551c-.534-1.076-1.149-2.168-1.62-3.226a71.281 71.281 0 0 0-1.326-2.748c2.048 5.101 4.412 9.563 7.059 13.806a93.473 93.473 0 0 0 3.869 5.697c-.192-.259-.392-.511-.583-.771a95.012 95.012 0 0 0 4.6 5.841l.016.02zM18.039 149.078l-.125-.17.125.17zM1.335 106.042l-.483-3.875c.256 2.365.553 5.008 1.096 7.654l-.327-1.879a23.961 23.961 0 0 1-.286-1.9zM85.812 185.575c6.652.673 13.628.472 20.461-.609 6.837-1.077 13.524-2.987 19.741-5.449-11.45 4.503-23.602 6.506-35.49 6.171-1.591-.025-3.159 0-4.712-.113z">
    </path>
    <path xmlns="http://www.w3.org/2000/svg" d="M46.426 171.967l-.259-.165c.087.055.172.111.259.165zM46.167 171.802zM43.653 170.135zM56.077 177.284A83.837 83.837 0 0 0 73.2 183.1c-9.688-2.21-18.805-6.109-26.774-11.133 3.06 1.947 6.277 3.749 9.651 5.317zM177.002 107.094c.098-1.58.296-3.238.346-4.027.594-5.071.77-9.401.745-13.745-.11-.783-.425-2.25-.55-3.918-.153-1.672-.378-3.309-.568-4.924-.289-1.601-.538-3.186-.854-4.74 2.275 11.617 2.237 23.279.144 34.282a94.97 94.97 0 0 1 .737-2.928z">
    </path>
    <path xmlns="http://www.w3.org/2000/svg" d="M.887 83.482c.848-6.9 2.653-13.626 4.37-18.107l-.695 3.28c.429-.961 1.122-3.194 2.067-5.557l.682-1.802.753-1.747c.5-1.131.92-2.203 1.363-3.025-.303.771-.595 1.602-.947 2.436-.345.837-.732 1.687-1.101 2.542l1.514-3.409A111.863 111.863 0 0 0 4.954 69.8c-1.133 4.352-2.029 8.926-2.511 13.032-.14 1.024-.189 2.024-.28 2.978-.067.954-.183 1.864-.192 2.724-.042 1.719-.1 3.224-.071 4.428.105 2.409.25 3.61.459 2.939.411-1.333.403-8.188 1.837-16.767.767-4.276 1.868-8.966 3.362-13.561 1.483-4.599 3.427-9.058 5.44-12.992l-.592 1.292-.545 1.331-1.116 2.691-1.024 2.78-.521 1.402c-.153.476-.308.954-.461 1.434-1.32 3.807-2.307 7.816-3.167 11.857l-.559 3.052c-.205 1.014-.292 2.046-.444 3.067-.318 2.041-.434 4.097-.611 6.129-.199 4.074-.239 8.098.13 11.946-.015-.914-.03-1.726-.017-2.512l.115-2.355c.048-.809.039-1.667.115-2.65.07-.983.134-2.091.19-3.402.391-6.608 1.572-13.15 3.408-19.481 1.75-6.358 3.814-11.957 6.889-17.03l.801-1.526c.542-1.024.993-2.034 1.566-3.064.653-1.13 1.278-1.976 1.784-2.751.521-.767.963-1.441 1.469-2.095l3.682-5.082c.075-.009-.022.185-.2.473a28.962 28.962 0 0 1 1.959-2.49c.755-.875 1.488-1.803 2.109-2.569.146-.007.288-.011.623-.251 8.65-9.197 19.295-16.692 31.291-21.417l2.667-1.039 2.7-.899 1.343-.448 1.36-.38 2.71-.753c1.55-.373 3.12-.751 4.721-1.091l2.437-.426c.819-.141 1.642-.3 2.484-.378 1.674-.201 3.134-.625 3.921-.729 4.369-.249 8.73-.199 13.849.216.397.007 1.015.043 1.732.082.717.041 1.537.061 2.332.134.932.21 1.927.418 2.971.621 6.369.988 12.527 2.754 18.386 5.103l-.007-.028 2.244.894 2.29 1.058c1.571.684 3.11 1.559 4.7 2.383.798.407 1.554.904 2.338 1.354.77.474 1.576.894 2.32 1.412 1.508 1.002 3.037 1.961 4.446 3.032a99.912 99.912 0 0 1 6.6 5.198c.046.042.094.081.14.122l.042.038 1.457 1.322 1.394 1.391 1.395 1.392c.462.467.89.967 1.337 1.449-.216-.35-.208-.491-.2-.63-.689-.66-1.504-1.441-2.309-2.21 1.343 1.222 2.515 2.327 3.477 3.229.371.474.776.94 1.16 1.449l1.186 1.566 1.261 1.629 1.255 1.752c2.226 2.838 4.191 5.874 6.057 8.97.864 1.588 1.817 3.131 2.586 4.774l1.213 2.436 1.092 2.497c.314.533.192.022.231-.068 1.225 2.962 2.21 6.042 3.102 9.146a88.212 88.212 0 0 1 3.408 17.211c.225 1.378.321 2.772.52 4.153l-.123 2.924c-.001 1.103.057 2.206.01 3.311l-.128 3.326c-.016.75-.124 1.569-.187 2.459-.084.888-.128 1.846-.256 2.856l-.412 3.192c-.132 1.119-.387 2.269-.583 3.471a90.635 90.635 0 0 1-4.312 15.482c-.242.826-.427 1.486-.592 1.855-.627 1.501-1.296 2.954-1.942 4.385-.723 1.394-1.386 2.788-2.127 4.108a86.09 86.09 0 0 1-7.949 12.379c-.336.439-.649.885-.987 1.297l-.998 1.206c-.66.779-1.25 1.558-1.876 2.234-1.251 1.352-2.301 2.606-3.286 3.549-1.128 1.178-1.027 1.233-.246.665a35.07 35.07 0 0 0 1.608-1.262l2.122-1.914c.776-.677 1.519-1.441 2.235-2.161.708-.725 1.416-1.386 1.962-1.984 1.101-1.191 1.824-1.926 1.67-1.599-1.777 3.345-5.013 7.471-9.743 12.035-2.413 2.227-5.128 4.647-8.339 6.98-1.566 1.221-3.307 2.338-5.082 3.558-1.834 1.123-3.708 2.353-5.757 3.445-4.484 2.442 3.365-1.475 3.577-1.512a22.87 22.87 0 0 1-2.377 1.64c-1.478.786-2.943 1.597-4.474 2.273-.895.411-1.774.855-2.679 1.239l-2.729 1.122 1.444-.568c2.952-1.173 5.711-2.555 8.202-3.922-.936.566-1.96 1.221-3.082 1.812-1.203.622-2.448 1.302-3.697 1.909l-3.625 1.686c12.968-4.711 24.885-12.507 34.319-22.67 4.723-5.066 8.935-10.631 12.369-16.651a93.904 93.904 0 0 0 8.288-18.999c-3.154 9.93-8.071 19.052-13.981 26.765 10.744-14.507 17.15-32.293 17.999-50.636-.001 1.011-.101 2.018-.168 3.025-.083 1.007-.123 2.018-.241 3.022-.257 2.005-.441 4.021-.827 6.009-.624 4-1.636 7.931-2.782 11.815 2.262-7.021 3.613-14.424 4.145-21.869.554-7.451.092-14.947-1.057-22.211 1.974 9.622 2.301 20.524.619 31.298 1.182-6.949 1.482-14.112 1.028-21.214-.102-2.713-.422-5.407-.685-7.901-.377-2.476-.662-4.762-1.027-6.611 1.445 6.826 2.015 12.648 2.293 18.136-.267-11.977-2.748-24.112-7.62-35.511 2.659 6.191 4.842 12.851 6.175 19.698 1.34 6.84 1.897 13.838 1.58 20.57-.015-.788.018-1.575-.028-2.366l-.107-2.391c.287 10.85-1.384 21.604-4.696 31.717-1.662 5.056-3.715 9.969-6.2 14.644a95.521 95.521 0 0 1-8.56 13.316c3.673-4.29 7.551-10.354 10.646-17.015 3.081-6.675 5.368-13.894 6.941-20.199-2.314 11.322-6.907 22.494-13.571 32.471-6.646 9.985-15.351 18.764-25.423 25.502-10.06 6.759-21.474 11.437-33.187 13.748a94.608 94.608 0 0 1-17.657 1.809 94.462 94.462 0 0 1-17.361-1.515l3.005.571c1.002.19 2.018.295 3.026.445 2.016.324 4.055.446 6.087.633 4.073.229 8.168.306 12.25-.005 4.089-.217 8.152-.827 12.196-1.572 2.006-.456 4.036-.829 6.017-1.414.994-.278 2-.521 2.987-.83l2.955-.958c-1.492.462-3.062 1.074-4.739 1.523l-2.101.618a91.772 91.772 0 0 0 12.91-4.496 89.46 89.46 0 0 0 5.651-2.705 96.653 96.653 0 0 1-10.714 4.872 98.407 98.407 0 0 1-21.66 5.382c-1.11.176-2.122.231-3.029.326l-2.428.24c-1.429.113-2.484.164-3.222.245-1.477.147-1.687.284-1.099.397.587.113 1.971.203 3.673.251 1.697-.01 3.71-.101 5.541-.268 18.397-1.887 35.288-9.107 48.824-19.916 13.545-10.811 23.919-25.172 29.701-41.467.363-.946.642-1.922.944-2.89.293-.971.617-1.932.882-2.912.491-1.97 1.072-3.917 1.448-5.917l.619-2.985.487-3.012.241-1.507.172-1.517.342-3.034c.698-8.114.422-16.315-.812-24.363-.66-4.554-1.82-9.961-3.315-14.777l-1.15-3.484c-.4-1.107-.825-2.151-1.203-3.133l-.557-1.415-.571-1.271-.981-2.124c-3.134-6.359-7.072-12.424-11.682-18.065-4.605-5.643-9.896-10.868-15.861-15.418l-2.244-1.703-2.327-1.608-1.166-.806-1.203-.756-2.417-1.508c-3.295-1.904-6.67-3.739-10.228-5.261-3.521-1.598-7.206-2.895-10.957-4.055-1.895-.52-3.781-1.1-5.724-1.499-.968-.209-1.928-.463-2.907-.638l-2.944-.521C100.363.01 93.04-.285 85.724.265 78.412.83 71.069 2.218 64.028 4.614l-2.635.913c-.881.297-1.73.682-2.597 1.019-.858.359-1.735.673-2.577 1.069l-2.532 1.173c-.852.376-1.675.808-2.496 1.245l-2.469 1.297-2.402 1.412c-.8.472-1.606.933-2.372 1.458l-2.324 1.528c-.782.497-1.506 1.078-2.261 1.612-.741.554-1.51 1.07-2.226 1.654l-2.157 1.737c-.729.565-1.417 1.178-2.103 1.792l-2.063 1.83-1.971 1.919c-.656.639-1.319 1.271-1.93 1.951-5.031 5.298-9.451 11.078-13.066 17.194A99.518 99.518 0 0 0 5.18 64.379C.805 77.299-.45 90.402.134 102.237c-.126-4.872-.147-11.859.753-18.755zm141.132 90.446a96.807 96.807 0 0 0 8.765-6.389c-2.84 2.339-5.758 4.499-8.765 6.389zm40.217-54.282c-.299.901-.552 1.791-.882 2.641l-.957 2.523-.466 1.248-.513 1.231a108.54 108.54 0 0 0-.997 2.501 97.307 97.307 0 0 1-6.587 13.35c-2.521 4.275-5.443 8.281-8.565 12.04-1.542 1.899-3.222 3.66-4.874 5.421l-2.581 2.523c-.847.848-1.774 1.604-2.652 2.404-.736.64-1.478 1.266-2.225 1.882a90.696 90.696 0 0 0 7.896-7.312 89.808 89.808 0 0 1-11.689 10.188c-1.036.722-2.037 1.496-3.113 2.176l-3.247 2.069-3.43 1.949c-1.167.648-2.399 1.224-3.634 1.855a74.206 74.206 0 0 1 2.685-1.508c1.021-.567 2.092-1.237 3.138-1.85 1.054-.601 2.012-1.261 2.808-1.813.796-.552 1.42-1.01 1.745-1.306-.464.315-.936.617-1.406.924a92.477 92.477 0 0 0 1.507-1.015c-.021.023-.065.059-.101.091 10.932-7.466 20.245-17.277 27.223-28.462 7.009-11.175 11.57-23.781 13.46-36.601-.41 5.142-1.352 9.248-2.543 12.851zm-6.654-65.352zm-8.448-12.698a92.37 92.37 0 0 1 7.773 14.352c.25.549.486 1.106.719 1.664 4.963 12.154 7.221 25.192 6.89 38.036.084-4.25-.198-8.498-.669-12.71-.533-4.854-1.518-9.65-2.824-14.341-2.562-9.407-6.723-18.323-12.005-26.451.485.67.996 1.396 1.525 2.166a32.826 32.826 0 0 1 1.59 2.463l-.638-1.109-.689-1.079-1.378-2.156c-.938-1.424-1.955-2.796-2.934-4.192-1.062-1.334-2.069-2.712-3.174-4.011-.836-.953-1.637-1.938-2.485-2.879 2.992 3.155 5.801 6.54 8.299 10.247zM96.886 1.152c1.467.078 2.937.221 4.407.331 1.204.101 2.402.279 3.588.413.356.015.732.039 1.204.092.471.065 1.034.186 1.769.354 5.469.912 10.459 2.283 14.001 3.699 6.798 2.573 13.123 5.774 18.86 9.471 5.739 3.69 10.889 7.887 15.246 12.471 2.008 2.179 1.422 1.704.315.646l1.662 1.764c-.736-.734-1.459-1.478-2.206-2.196l-2.301-2.09c.56.49 1.918 1.663 2.845 2.522-7.389-7.539-16.026-13.799-25.375-18.404-9.356-4.603-19.431-7.446-29.502-8.581 1.618.18 2.412.22 3.168.24-1.085-.127-2.173-.301-3.274-.401-1.479-.097-2.955-.229-4.423-.301l-4.36-.103c1.444-.001 2.907.039 4.376.073z">
    </path>
    <path xmlns="http://www.w3.org/2000/svg" d="M115.942 184.69l.426-.125c-.446.12-.885.252-1.334.366.304-.076.609-.15.908-.241zM160.424 146.151c4.235-5.587 7.977-12.263 10.366-18.014l-.029.006c-6.061 14.322-15.892 26.66-28.16 35.744a159.12 159.12 0 0 0 6.418-4.703c2.698-2.82 7.213-7.406 11.405-13.033zM35.35 162.846c7.172 6.412 15.821 11.992 25.448 15.751 3.754 1.413 7.585 2.651 11.503 3.523 1.944.502 3.929.812 5.899 1.181.987.175 1.987.272 2.979.412.994.129 1.986.275 2.987.333-4.519-.501-9.005-1.251-13.372-2.44-4.364-1.185-8.642-2.65-12.769-4.449a97.4 97.4 0 0 1-11.894-6.314c-3.786-2.408-7.376-5.097-10.781-7.997zM123.877 174.277l-2.219.871-2.266.756c-1.5.54-3.047.944-4.59 1.373 1.551-.39 3.111-.754 4.624-1.254l2.283-.698 2.23-.815c-.086-.044-.594.055-.062-.233zM97.683 179.965c-1.16.099-2.326.09-3.494.102-1.168.014-2.338.039-3.509-.038l1.576.148c.482.031.916.068 1.295.113 1.381-.118 2.752-.151 4.132-.325zM51.441 169.209c1.341.787 2.765 1.48 4.178 2.244.354.194.996.415 1.801.709-1.721-.739-3.37-1.655-5.046-2.505-.83-.441-1.629-.935-2.443-1.395-.812-.464-1.621-.927-2.389-1.445l.937.626.977.584 1.985 1.182z">
    </path>
  </g>
  <g id="SvgjsG3183" featurekey="symbolFeature-0" transform="matrix(15.020851994454661,0,0,15.020851994454661,106.77668421889749,89.6692470052494)" fill="#be3144">
    <title xmlns="http://www.w3.org/2000/svg">icon </title>
    <path xmlns="http://www.w3.org/2000/svg" d="M.76105,1.331a.185.185,0,0,0,.07256.16612.61547.61547,0,0,0,.11976.07763c.06486.03511.12857.071.19657.1009a4.51654,4.51654,0,0,0,.447.165q.05491.01754.11012.03431a1.9216,1.9216,0,0,0-.22417-.0137l-.00412-.0022a.55261.55261,0,0,0-.36048-.05595l-.00688.00157c.01.001.00547.00168-.0138.00222l-.02047.00536a.42511.42511,0,0,0-.0487.0177.24071.24071,0,0,0-.08055.0596.19841.19841,0,0,0-.049.12857A.43429.43429,0,0,0,.797,2.134a.39625.39625,0,0,0-.01307.359.76229.76229,0,0,0,.05106.09372.90786.90786,0,0,0,.06528.0886,1.14538,1.14538,0,0,0,.16167.15781,2.10421,2.10421,0,0,0,.3769.23514q.1068.05459.21778.10191l-.01448.008a.27931.27931,0,0,0-.13491.26538.26458.26458,0,0,0,.16221.19545.82636.82636,0,0,0,.27659.07328.94235.94235,0,0,0,.24274.00117,1.24591,1.24591,0,0,0,.32014-.09356.739.739,0,0,0,.24393-.16281,1.09462,1.09462,0,0,0,.17664-.00234.5954.5954,0,0,0,.33207-.13288A.2128.2128,0,0,0,3.279,2.9862q-.018-.019-.03726-.03656a.62385.62385,0,0,0,.01745-.17446.88986.88986,0,0,0-.10509-.3632,1.50015,1.50015,0,0,0-.108-.18148c.20808.084.40932.182.61517.27a2.51309,2.51309,0,0,0,.40626.14621c.04488.01062.08811.02477.13264.03607.05223.01324.13819.01588.16406-.06147a.07709.07709,0,0,0-.01665-.09122,1.38784,1.38784,0,0,0-.413-.22354c-.14878-.05366-.30121-.0995-.45486-.14188-.17285-.04772-.347-.09227-.5212-.13678Q2.91365,2.01347,2.86833,2A1.84124,1.84124,0,0,0,2.644,1.78032a2.93465,2.93465,0,0,0-.79072-.4652,2.23475,2.23475,0,0,0-.71664-.15748.52832.52832,0,0,0-.27885.04191A.18386.18386,0,0,0,.76105,1.331Zm.38743.80653-.00166-.00178a.53345.53345,0,0,1-.05946-.077c.02063-.00777.04128-.01457.06028-.02026a.95523.95523,0,0,1,.19161-.03738q.04087-.0034.08133-.00423c.01338.00779.02643.016.039.02486a.52964.52964,0,0,1,.05057.04065l.01649.01581.02325.02753a.39451.39451,0,0,1,.06944.13344,1.08126,1.08126,0,0,1,.04856.221,2.07419,2.07419,0,0,1-.23668-.11475,1.63408,1.63408,0,0,1-.18373-.123c-.02489-.01925-.04966-.03911-.07312-.06014l-.01726-.01619Zm.6464.37152c.0004-.06128.00339-.12249-.00143-.18312a.59592.59592,0,0,0-.04973-.19963A.51956.51956,0,0,0,1.673,2.01155q.03228.004.06435.00891.08515.01291.17046.0306a.2569.2569,0,0,0,.04785.14244,1.14215,1.14215,0,0,0,.09211.12841,1.08575,1.08575,0,0,0,.14322.13952,1.11005,1.11005,0,0,0-.21832-.04051.08976.08976,0,0,0-.07309.037.094.094,0,0,0-.01672.07983l.00026.00126-.048-.01588Zm1.04133-.03794.01443.01427.015.01658a.42735.42735,0,0,1,.03782.05054l.01062.01855c-.0043-.00774.00542.01284.00711.01785l.00428.01817.00023.00419.00012.00192-.00094.005-.0004.001-.00114.00246-.00423.0054-.00042.00051L2.908,2.63658l-.00975.007-.02175.01118-.022.00917c.01464-.00564-.01.00253-.01057.00269a.398.398,0,0,1-.0407.00887,3.05586,3.05586,0,0,0-.30182-.203A1.47416,1.47416,0,0,1,2.169,2.211a1.00192,1.00192,0,0,1-.08666-.1181,2.36322,2.36322,0,0,1,.48061.1863A1.23133,1.23133,0,0,1,2.83621,2.47109Zm-.16038.37569.05267-.00252.01518.01333a.77932.77932,0,0,1,.13243.15376c.009.01366.01771.02753.02589.04175l.00982.01906.00049.00108a.60642.60642,0,0,1-.17063-.04175,1.19779,1.19779,0,0,1-.1957-.08474,1.44738,1.44738,0,0,1-.17081-.11662A1.846,1.846,0,0,0,2.67583,2.84678Zm.1383-.607-.00652-.00444a1.7322,1.7322,0,0,0-.21378-.12083q.07354.01849.14729.03656Q2.77869,2.19436,2.81413,2.23981Zm-1.32774.64191c-.04938-.02557-.11861-.06526-.17592-.10219a1.54834,1.54834,0,0,1-.173-.12923c-.02578-.02236-.05045-.046-.07426-.07059L1.05188,2.568l-.01474-.01623c-.01317-.01471-.02566-.03-.03784-.04559a.76528.76528,0,0,1-.05621-.0818l-.00922-.016L.9267,2.39388A.42434.42434,0,0,1,.91,2.352a.21569.21569,0,0,1-.00758-.13442l.00114-.00645L.911,2.194l.0062-.01214C.91453,2.187.9223,2.17367.92366,2.17163l.01282-.017.01273.02224a.5659.5659,0,0,0,.07426.0952,1.27888,1.27888,0,0,0,.32711.23642,2.89488,2.89488,0,0,0,.68551.254c.01752.01668.03546.03291.05338.049a2.30781,2.30781,0,0,0,.3348.26393,1.26594,1.26594,0,0,0,.233.11148l-.021.00117-.05195.00154c-.03766.00066-.075-.00044-.11213-.00245A1.7802,1.7802,0,0,1,2.25933,3.162l-.00639-.0011-.00608-.00122-.02507-.005-.05-.011c-.036-.00833-.07162-.01771-.107-.02772-.06781-.01913-.13431-.04147-.19984-.06575A3.37616,3.37616,0,0,1,1.48639,2.88172Zm.92142.66366a1.12182,1.12182,0,0,1-.17264.04748c-.02044.00407-.041.00727-.06137.00978l-.0044.00049-.00756.00063-.02928.00143A1.08931,1.08931,0,0,1,1.87571,3.582a.72068.72068,0,0,1-.13241-.04191.24.24,0,0,1-.04638-.02456.27647.27647,0,0,1-.04411-.03481l-.00589-.00648-.008-.01039-.01266-.02035c.00365.00636-.00482-.01324-.006-.01717l-.0026-.01015c.0018.00763-.00077-.00814-.00093-.01069-.0003-.00458-.00023-.00926-.00019-.01389l0-.00164.00033-.00276a.21826.21826,0,0,1,.00634-.03041l.00058-.00232.00157-.00409.00664-.016.00659-.01273c-.00437.00814.00594-.00811.00765-.01039l.0072-.00854c-.0043.00491.00468-.00433.00646-.00587l.01221-.00975.00234-.0018.00166-.00094A.233.233,0,0,1,1.70445,3.27l.00973-.00386.01705-.005c.01092-.00295.022-.0051.033-.007l.01707-.00255.0113-.00124a.62187.62187,0,0,1,.07071-.00117,2.50626,2.50626,0,0,0,.37646.09637q.05024.00867.10139.01448a1.80054,1.80054,0,0,0,.20761.06617q.03551.00835.07171.01478A.92986.92986,0,0,1,2.40781,3.54538Zm.79233-.44653a.249.249,0,0,1,.02056.03193l.00274.00662.00517.01579.00105.0043.00077.01495L3.2297,3.177l-.00222.00842-.0043.00957L3.22212,3.197l-.00243.00344-.01261.01567-.00014.00012-.00522.005a.328.328,0,0,1-.03962.031l-.01307.008-.02032.01132c-.01375.00723-.02783.01349-.042.01937a.50119.50119,0,0,1-.0871.02528.69994.69994,0,0,1-.14991.01366.6363.6363,0,0,0,.24573-.13234.46592.46592,0,0,0,.09248-.11386Zm-.11957-.32659c.00161.01385.00262.02793.00335.04206l.00051.02007c-.03672-.02206-.07459-.04245-.11288-.06184a.24905.24905,0,0,0,.074-.07349l.01375-.02519c.00631.02154.01186.04358.01642.06594l.00208.01158ZM.992,1.321l.02526-.00166.033-.0007c.02318-.00014.04624.00063.06919.00192.0342.00187.06809.00519.10179.009a2.29822,2.29822,0,0,1,.80215.26175c.05232.02741.12551.07017.18389.107.065.04107.12792.08516.18892.13173q.04077.03108.08062.06425c-.038-.0094-.07639-.01766-.11548-.02341-.2491-.06841-.49645-.14052-.74038-.22155a4.26662,4.26662,0,0,1-.44438-.16873c-.05426-.025-.10759-.05176-.16095-.07836l-.00765-.004L.99757,1.39275l-.03116-.0192A.28072.28072,0,0,1,.93778,1.352L.93039,1.34511.923,1.33557l.00014-.00009.0044-.00178.00622-.00185A.34865.34865,0,0,1,.992,1.321Z" fill="#be3144">
    </path>
  </g>
  <g id="SvgjsG3184" featurekey="nameLeftFeature-0" transform="matrix(1.419759586102957,0,0,1.419759586102957,50.43272610173775,159.01204293282498)" fill="url(#SvgjsLinearGradient3192)">
    <path d="M11.016 5.195 l6.3477 0 l0 2.6855 l-1.5625 0 l0 9.4434 l1.5625 0 l0 2.6758 l-6.3477 0 l0 -2.6758 l1.543 0 l0 -3.7891 l-6.6797 0 l0 3.7891 l1.5625 0 l0 2.6758 l-6.3379 0 l0 -2.6758 l1.5332 0 l0 -9.4434 l-1.5332 0 l0 -2.6855 l6.3379 0 l0 2.6855 l-1.5625 0 l0 3.0762 l6.6797 0 l0 -3.0762 l-1.543 0 l0 -2.6855 z M26.25973125 20.26367 q-1.005859375 0 -1.923828125 -0.2734375 t-1.7139 -0.77148 t-1.4453 -1.1963 t-1.1084 -1.5527 t-0.71289 -1.8311 t-0.25391 -2.041 t0.25391 -2.0459 t0.71289 -1.8359 t1.1084 -1.5527 t1.4453 -1.1963 t1.7139 -0.77148 t1.9238 -0.27344 t1.9287 0.27344 t1.7188 0.77148 t1.4453 1.1963 t1.1133 1.5527 t0.71777 1.8359 t0.25391 2.0459 q0 1.0546875 -0.25390625 2.036132813 t-0.71777 1.8359 t-1.1133 1.5527 t-1.4453 1.1963 t-1.7188 0.77148 t-1.9287 0.27344 z M26.25973125 17.1973 q0.849609375 0 1.557617188 -0.3662109375 t1.2158 -0.99609 t0.78613 -1.4648 t0.27832 -1.7725 q0 -0.947265625 -0.283203125 -1.787109375 t-0.7959 -1.4697 t-1.2158 -0.99609 t-1.543 -0.36621 t-1.543 0.36621 t-1.2109 0.99609 t-0.7959 1.4697 t-0.28809 1.7871 q0 0.9375 0.2880859375 1.772460938 t0.7959 1.4648 t1.2109 0.99609 t1.543 0.36621 z M35.38084375 5.195 l6.3379 0 l0 2.6855 l-1.5625 0 l0 9.4434 l3.2227 0 q0.126953125 0 0.2490234375 -0.0732421875 t0.21484 -0.19043 t0.15137 -0.25391 t0.058594 -0.26367 l0 -1.9824 l3.1641 0 l0 5.4395 l-11.836 0 l0 -2.6758 l1.5332 0 l0 -9.4434 l-1.5332 0 l0 -2.6855 z M56.142575 17.3242 l1.4746 0 l-0.66406 -2.1289 l-4.5508 0 l-0.66406 2.1289 l1.5625 0 l0 2.6758 l-5.6152 0 l0 -2.6758 l1.1035 0 l4.0332 -12.129 l3.916 0 l3.9453 12.129 l1.0742 0 l0 2.6758 l-5.6152 0 l0 -2.6758 z M53.173875 12.6953 l2.9883 0 l-1.5039 -4.8145 z"></path>
  </g>
  <g id="SvgjsG3185" featurekey="inlineSymbolFeature-0" transform="matrix(0.3030260952845452,0,0,0.3030260952845452,141.4848695235773,161.73948562881156)" fill="#be3144">
    <title xmlns="http://www.w3.org/2000/svg">Tucan-2 </title>
    <desc xmlns="http://www.w3.org/2000/svg">Created with Sketch. </desc>
    <g xmlns="http://www.w3.org/2000/svg" stroke="none" stroke-width="1" fill="none" fill-rule="evenodd">
      <path d="M64.1902389,24.5413777 C73.3157024,26.1416981 83.0214241,29.6315172 88.8494211,32.8336088 C86.7510389,34.0837058 77.5009829,31.3781062 66.183153,30.8644425 C58.9655057,30.536867 56.3437672,30.1521565 54.812183,29.2955392 C54.4615976,30.9469289 54.3052761,32.5568366 54.5575561,34.028853 C55.3439525,38.6173588 56.7019398,37.8680523 55.2012662,41.0886986 C53.7005926,44.309345 51.5426315,50.1539729 49.3504334,51.1567014 C47.1582352,52.1594298 43.3723394,54.0473179 42.0825145,56.7132554 C41.319542,58.2902422 39.9327199,60.9917127 38.5032474,62.9514025 C40.2840771,63.4734094 42.4391974,63.9278472 42.8367281,64.3280967 C43.4181489,64.9134939 44.9393556,67.8386522 45.1230806,68.8806085 C45.3068056,69.9225647 45.6724487,71.6214136 44.2452175,72.3160366 C43.5760719,72.6417048 42.4869809,73.2443186 42.1047787,72.5160605 C41.7225765,71.7878024 42.4752835,71.8382527 42.9082601,71.3696951 C42.0812159,71.7868485 41.3344965,72.4612717 40.9455087,71.7157811 C40.7818419,71.4021155 41.0075156,70.8817789 41.2415833,70.8072134 C42.2546819,70.4844769 41.9385157,69.3206594 41.4941885,68.5046676 C40.7271144,67.0959622 40.093756,66.9652032 39.4635611,67.0763236 C38.8333662,67.1874439 38.8724625,66.641584 38.7653347,66.0340325 C38.6952148,65.6363626 37.6553875,65.2599443 36.8358274,64.8029823 C36.4263867,65.127964 36.0334244,65.321939 35.6723385,65.3354635 C34.3072455,65.3865934 33.600793,63.8619125 33.5529811,60.7614207 C31.8742436,61.016865 30.3387997,61.7199127 28.9466495,62.8705638 C30.77255,63.4266608 33.1329316,63.9073228 33.5508474,64.3280967 C34.1322681,64.9134939 35.6534748,67.8386522 35.8371998,68.8806085 C36.0209248,69.9225647 36.3865679,71.6214136 34.9593367,72.3160366 C34.2901911,72.6417048 33.2011001,73.2443186 32.8188979,72.5160605 C32.4366957,71.7878024 33.1894027,71.8382527 33.6223793,71.3696951 C32.7953351,71.7868485 32.0486157,72.4612717 31.6596279,71.7157811 C31.4959611,71.4021155 31.7216348,70.8817789 31.9557026,70.8072134 C32.9688011,70.4844769 32.652635,69.3206594 32.2083077,68.5046676 C31.4412336,67.0959622 30.8078752,66.9652032 30.1776803,67.0763236 C29.5474854,67.1874439 29.5865817,66.641584 29.479454,66.0340325 C29.3996401,65.5813857 28.0634659,65.1562726 27.2258137,64.6085735 C25.6948734,66.4630033 24.3726252,68.9693199 23.259069,72.1275234 C19.6078704,82.4828407 17.2964078,85.2304997 15.5875626,85.7926791 C13.8787174,86.3548585 6.65419514,85.2541152 5.34543095,83.4280967 C4.03666677,81.6020782 6.62538385,75.5223127 10.1055177,71.4691026 C12.425607,68.7669625 14.8174448,64.1333345 17.2810311,57.5682184 C15.9217581,58.7598371 14.4680001,61.0875071 12.919757,64.5512284 C13.2501616,61.9928466 15.8503462,53.6209009 18.3220418,49.507486 C20.7937375,45.394071 21.9256658,42.8500938 27.048318,38.1879657 C32.1709703,33.5258376 38.5679551,30.9274452 39.1683942,30.475985 C39.7688333,30.0245248 41.3908569,25.460784 42.1807422,23.3904819 C42.9706274,21.3201798 45.6318602,16.3774995 50.5914321,15.9131747 C52.9563574,15.6917658 54.5090585,15.4705208 56.7145877,16.1040051 C62.348855,14.3749572 68.4271034,13.6103384 76.5155534,14.3288336 C86.9418081,15.2549956 90.4396868,17.4610708 92.4359104,18.8757862 C93.7667261,19.8189297 94.6214226,21.5705375 95,24.1306095 C91.1767979,23.1099435 86.3752917,22.4859229 80.5954815,22.2585477 C74.2950824,22.0106927 67.7837306,22.5380005 62.0018376,23.7215622 L72.6096084,23.9413023 L64.1902414,24.5413782 Z M56.5232828,17.1869147 C50.6889051,16.7448832 46.7331051,18.7877751 44.9967552,23.3504236 C43.2604053,27.9130721 42.6409801,28.2132952 42.2199343,30.0370445 C41.7988886,31.8607938 41.4168892,35.2211319 43.9004434,37.594252 C46.3839975,39.9673722 50.7092953,40.8036082 51.7761981,40.6287151 C52.843101,40.4538221 55.4621483,38.8980525 54.5468189,36.9063403 C53.6314894,34.9146281 53.3221026,31.9890117 54.1538513,28.3863123 C54.9856,24.7836129 56.7827951,21.8683174 56.5232828,17.1869147 Z M52.3462071,23.3347676 C51.3662788,23.1085333 50.7552891,22.1307454 50.9815234,21.1508171 C51.2077577,20.1708888 52.1855456,19.559899 53.1654739,19.7861333 C54.1454022,20.0123676 54.7563919,20.9901555 54.5301577,21.9700838 C54.3039234,22.9500121 53.3261354,23.5610019 52.3462071,23.3347676 Z" fill="#be3144"></path>
    </g>
  </g>
  <g id="SvgjsG3186" featurekey="nameRightFeature-0" transform="matrix(1.4152531512457365,0,0,1.4152531512457365,174.00495580276683,159.06189194592585)" fill="#be3144">
    <path d="M7.8027 20.29297 q-1.533203125 0 -2.802734375 -0.5712890625 t-2.2656 -1.626 t-1.5137 -2.5 t-0.51758 -2.998 q0 -1.6015625 0.5224609375 -3.0078125 t1.4648 -2.4463 t2.2461 -1.6406 t2.8662 -0.60059 q1.572265625 0 2.880859375 0.6005859375 t2.2461 1.6406 t1.4551 2.4463 t0.51758 3.0078 t-0.52246 3.0029 t-1.4648 2.4463 t-2.2461 1.6455 t-2.8662 0.60059 z M7.8027 18.4766 q1.162109375 0 2.104492188 -0.478515625 t1.6064 -1.2842 t1.0254 -1.8701 t0.36133 -2.2461 q0 -1.2109375 -0.3955078125 -2.338867188 t-1.1035 -1.9092 t-1.6455 -1.2061 t-1.9531 -0.4248 q-1.162109375 0 -2.109375 0.478515625 t-1.6113 1.2842 t-1.0254 1.875 t-0.36133 2.2412 q0 1.3671875 0.400390625 2.436523438 t1.0596 1.7773 t1.5723 1.1865 t2.0752 0.47852 z M23.398403125 20.29297 q-1.533203125 0 -2.802734375 -0.5712890625 t-2.2656 -1.626 t-1.5137 -2.5 t-0.51758 -2.998 q0 -1.6015625 0.5224609375 -3.0078125 t1.4648 -2.4463 t2.2461 -1.6406 t2.8662 -0.60059 q1.572265625 0 2.880859375 0.6005859375 t2.2461 1.6406 t1.4551 2.4463 t0.51758 3.0078 t-0.52246 3.0029 t-1.4648 2.4463 t-2.2461 1.6455 t-2.8662 0.60059 z M23.398403125 18.4766 q1.162109375 0 2.104492188 -0.478515625 t1.6064 -1.2842 t1.0254 -1.8701 t0.36133 -2.2461 q0 -1.2109375 -0.3955078125 -2.338867188 t-1.1035 -1.9092 t-1.6455 -1.2061 t-1.9531 -0.4248 q-1.162109375 0 -2.109375 0.478515625 t-1.6113 1.2842 t-1.0254 1.875 t-0.36133 2.2412 q0 1.3671875 0.400390625 2.436523438 t1.0596 1.7773 t1.5723 1.1865 t2.0752 0.47852 z M32.58790625 5.195 l5.5078 0 q1.015625 0 1.93359375 0.263671875 t1.709 0.74219 t1.4355 1.1475 t1.0986 1.4893 t0.69824 1.7627 t0.24414 1.958 q0 1.03515625 -0.244140625 1.982421875 t-0.69824 1.7773 t-1.0986 1.5088 t-1.4355 1.1621 t-1.709 0.74707 t-1.9336 0.26367 l-5.5078 0 l0 -1.6797 l1.4063 0 l0 -11.436 l-1.4063 0 l0 -1.6895 z M35.90820625 6.885 l0 11.436 l2.3047 0 q1.025390625 0 1.928710938 -0.44921875 t1.5771 -1.2256 t1.0645 -1.8262 t0.39063 -2.2607 q0 -1.19140625 -0.390625 -2.2265625 t-1.0645 -1.8018 t-1.5771 -1.2061 t-1.9287 -0.43945 l-2.3047 0 z"></path>
  </g>
</svg>